<?xml version="1.0" standalone="no"?><!DOCTYPE svg PUBLIC "-//W3C//DTD SVG 1.1//EN" "http://www.w3.org/Graphics/SVG/1.1/DTD/svg11.dtd"><svg t="1593486614206" class="icon" viewBox="0 0 1024 1024" version="1.1" xmlns="http://www.w3.org/2000/svg" p-id="13663" xmlns:xlink="http://www.w3.org/1999/xlink" width="64" height="64"><defs><style type="text/css"></style></defs><path d="M512 512m-501.76 0a501.76 501.76 0 1 0 1003.52 0 501.76 501.76 0 1 0-1003.52 0Z" fill="#508DEF" p-id="13664"></path><path d="M811.4176 109.3632c-13.1072-9.8304-26.8288-19.0464-40.96-27.4432v860.16c14.1312-8.3968 27.8528-17.6128 40.96-27.4432V109.3632zM213.4016 915.2512c13.1072 9.8304 26.8288 18.8416 40.96 27.4432V81.3056c-14.1312 8.3968-27.8528 17.6128-40.96 27.4432v806.5024z" fill="#E0E0E0" p-id="13665"></path><path d="M770.4576 952.32c-1.6384 0-3.4816-0.4096-5.12-1.2288-3.2768-1.8432-5.12-5.12-5.12-9.0112V81.92c0-3.6864 2.048-7.168 5.12-9.0112s7.168-1.8432 10.24 0.2048c14.336 8.6016 28.4672 18.0224 41.7792 28.0576 2.6624 1.8432 4.096 4.9152 4.096 8.192v805.4784c0 3.2768-1.4336 6.3488-4.096 8.192-13.312 10.0352-27.4432 19.456-41.7792 28.0576-1.4336 0.8192-3.2768 1.2288-5.12 1.2288z m10.24-851.968v823.296c6.9632-4.5056 13.7216-9.216 20.48-14.1312V114.4832c-6.7584-4.9152-13.5168-9.6256-20.48-14.1312zM254.3616 952.9344c-1.8432 0-3.6864-0.4096-5.3248-1.4336-14.336-8.6016-28.4672-18.0224-41.7792-27.8528-2.6624-1.8432-4.096-4.9152-4.096-8.192V108.7488c0-3.2768 1.4336-6.3488 4.096-8.192 13.312-9.8304 27.4432-19.2512 41.7792-27.8528 3.072-1.8432 7.168-2.048 10.24-0.2048 3.2768 1.8432 5.12 5.12 5.12 9.0112v861.184c0 3.6864-2.048 7.168-5.12 9.0112-1.4336 0.6144-3.2768 1.2288-4.9152 1.2288z m-30.72-42.8032c6.7584 4.9152 13.5168 9.6256 20.48 14.1312V99.9424c-6.9632 4.5056-13.7216 9.216-20.48 14.1312v796.0576z" fill="#1C1D21" p-id="13666"></path><path d="M595.7632 672.3584c-23.1424 0-41.984-18.8416-41.984-41.984V606.208c0-9.6256 6.5536-18.2272 15.9744-20.48 54.272-12.6976 94.8224-61.2352 94.8224-119.6032v-131.8912c0-67.7888-54.8864-122.6752-122.6752-122.6752h-60.0064c-67.7888 0-122.6752 54.8864-122.6752 122.6752v131.8912c0 58.368 40.7552 107.3152 95.4368 119.6032 9.4208 2.2528 16.1792 10.6496 16.1792 20.48v24.1664c0 23.1424-18.8416 41.984-41.984 41.984h-10.24c-68.608 0-124.1088 55.5008-124.1088 124.1088v167.936c36.0448 17.408 74.5472 30.5152 114.8928 38.912 33.1776 6.9632 67.3792 10.4448 102.6048 10.4448s69.4272-3.6864 102.6048-10.4448c40.3456-8.3968 78.848-21.504 114.8928-38.912v-167.936c0-68.608-55.5008-124.1088-124.1088-124.1088h-9.6256z" fill="#FFC5B3" p-id="13667"></path><path d="M359.2192 334.4384v141.312l72.2944-14.5408c46.8992-9.4208 80.4864-50.5856 80.4864-98.304v-151.1424h-29.9008c-67.7888 0-122.88 54.8864-122.88 122.6752z" fill="#FF8939" p-id="13668"></path><path d="M359.2192 485.7856c-2.2528 0-4.7104-0.8192-6.5536-2.2528-2.4576-1.8432-3.6864-4.9152-3.6864-7.9872v-141.312c0-73.3184 59.5968-132.9152 132.9152-132.9152H512c5.7344 0 10.24 4.5056 10.24 10.24v151.1424c0 52.4288-37.2736 97.8944-88.6784 108.3392l-72.2944 14.5408c-0.6144 0.2048-1.2288 0.2048-2.048 0.2048z m122.88-263.7824c-62.0544 0-112.4352 50.3808-112.4352 112.4352v128.8192l60.0064-12.0832c41.7792-8.3968 72.2944-45.4656 72.2944-88.2688v-140.9024h-19.8656z" fill="#1C1D21" p-id="13669"></path><path d="M664.7808 334.4384v141.312l-72.2944-14.5408c-46.8992-9.4208-80.4864-50.5856-80.4864-98.304v-151.1424h29.9008c67.7888 0 122.88 54.8864 122.88 122.6752z" fill="#FF8939" p-id="13670"></path><path d="M664.7808 485.7856c-0.6144 0-1.4336 0-2.048-0.2048l-72.2944-14.5408c-51.4048-10.24-88.6784-55.9104-88.6784-108.3392v-151.1424c0-5.7344 4.5056-10.24 10.24-10.24h29.9008c73.3184 0 132.9152 59.5968 132.9152 132.9152v141.312c0 3.072-1.4336 5.9392-3.6864 7.9872-1.8432 1.4336-4.096 2.2528-6.3488 2.2528zM522.24 222.0032v140.9024c0 42.8032 30.3104 79.872 72.2944 88.2688l60.0064 12.0832v-128.8192c0-62.0544-50.3808-112.4352-112.4352-112.4352H522.24z" fill="#1C1D21" p-id="13671"></path><path d="M512 1024c-136.8064 0-265.4208-53.248-362.0864-149.9136C53.248 777.4208 0 648.8064 0 512S53.248 246.5792 149.9136 149.9136C246.5792 53.248 375.1936 0 512 0s265.4208 53.248 362.0864 149.9136C970.752 246.5792 1024 375.1936 1024 512s-53.248 265.4208-149.9136 362.0864C777.4208 970.752 648.8064 1024 512 1024z m0-1003.52C241.0496 20.48 20.48 241.0496 20.48 512s220.5696 491.52 491.52 491.52 491.52-220.5696 491.52-491.52S782.9504 20.48 512 20.48z" fill="#1C1D21" p-id="13672"></path><path d="M337.5104 347.3408l-49.5616 3.8912c-18.2272 1.4336-32.1536 16.5888-32.1536 34.6112h81.7152v-38.5024z" fill="#FFC5B3" p-id="13673"></path><path d="M337.5104 396.0832h-81.7152c-5.7344 0-10.24-4.5056-10.24-10.24 0-23.3472 18.2272-43.2128 41.5744-44.8512l49.5616-3.8912c2.8672-0.2048 5.7344 0.8192 7.7824 2.6624s3.2768 4.7104 3.2768 7.5776v38.5024c0 2.6624-1.024 5.3248-3.072 7.168-1.8432 2.048-4.5056 3.072-7.168 3.072z m-69.2224-20.48h58.9824V358.4l-38.5024 2.8672c-9.216 0.8192-16.7936 6.5536-20.48 14.336z" fill="#1C1D21" p-id="13674"></path><path d="M182.0672 432.128h102.1952v165.888H182.0672z" fill="#FFC5B3" p-id="13675"></path><path d="M284.2624 608.256H182.0672c-5.7344 0-10.24-4.5056-10.24-10.24v-165.888c0-5.7344 4.5056-10.24 10.24-10.24h102.1952c5.7344 0 10.24 4.5056 10.24 10.24v165.888c0 5.7344-4.5056 10.24-10.24 10.24z m-91.9552-20.48h81.7152v-145.408H192.3072v145.408z" fill="#1C1D21" p-id="13676"></path><path d="M338.7392 456.4992c-11.264 0-20.48-9.216-20.48-20.48v-67.9936c0-11.264 9.216-20.48 20.48-20.48s20.48 9.216 20.48 20.48v67.9936c0 11.264-9.216 20.48-20.48 20.48z" fill="#FFC5B3" p-id="13677"></path><path d="M338.7392 466.7392c-16.9984 0-30.72-13.7216-30.72-30.72v-67.9936c0-16.9984 13.7216-30.72 30.72-30.72s30.72 13.7216 30.72 30.72v67.9936c0 16.7936-13.7216 30.72-30.72 30.72z m0-109.1584c-5.7344 0-10.24 4.7104-10.24 10.24v67.9936c0 5.7344 4.7104 10.24 10.24 10.24 5.7344 0 10.24-4.7104 10.24-10.24v-67.9936c0-5.5296-4.5056-10.24-10.24-10.24z" fill="#1C1D21" p-id="13678"></path><path d="M294.7072 854.016V633.4464H173.056V854.016c0 33.5872 27.2384 60.8256 60.8256 60.8256 33.5872-0.2048 60.8256-27.2384 60.8256-60.8256z" fill="#C67552" p-id="13679"></path><path d="M233.8816 924.8768c-39.1168 0-71.0656-31.9488-71.0656-71.0656V633.4464c0-5.7344 4.5056-10.24 10.24-10.24h121.6512c5.7344 0 10.24 4.5056 10.24 10.24V854.016c0 39.1168-31.9488 70.8608-71.0656 70.8608zM183.296 643.6864V854.016c0 27.8528 22.7328 50.5856 50.5856 50.5856s50.5856-22.7328 50.5856-50.5856V643.6864H183.296z" fill="#1C1D21" p-id="13680"></path><path d="M169.984 598.016h126.1568c5.12 0 9.216 4.096 9.216 9.216v32.5632c0 5.12-4.096 9.216-9.216 9.216H169.984c-5.12 0-9.216-4.096-9.216-9.216v-32.5632c0.2048-5.12 4.3008-9.216 9.216-9.216z" fill="#C67552" p-id="13681"></path><path d="M233.8816 883.9168c-16.5888 0-30.1056-13.5168-30.1056-30.1056V598.016c0-5.7344 4.5056-10.24 10.24-10.24s10.24 4.5056 10.24 10.24v256c0 5.3248 4.3008 9.6256 9.6256 9.6256 5.7344 0 10.24 4.5056 10.24 10.24s-4.7104 10.0352-10.24 10.0352z" fill="#FFA364" p-id="13682"></path><path d="M512 1024c-35.2256 0-70.4512-3.6864-104.6528-10.6496-40.5504-8.3968-79.872-21.7088-117.1456-39.7312-3.4816-1.6384-5.7344-5.3248-5.7344-9.216v-167.936c0-74.1376 60.2112-134.3488 134.3488-134.3488h10.24c17.408 0 31.744-14.1312 31.744-31.744V606.208c0-4.9152-3.4816-9.4208-8.192-10.4448-28.8768-6.5536-55.0912-22.9376-73.9328-46.08-19.0464-23.552-29.4912-53.248-29.4912-83.5584v-131.8912c0-73.3184 59.5968-132.9152 132.9152-132.9152h60.0064c73.3184 0 132.9152 59.5968 132.9152 132.9152v131.8912c0 62.2592-42.1888 115.5072-102.8096 129.4336-4.7104 1.024-8.192 5.5296-8.192 10.4448v24.3712c0 17.408 14.1312 31.744 31.744 31.744h9.6256c74.1376 0 134.3488 60.2112 134.3488 134.3488v167.936c0 3.8912-2.2528 7.5776-5.7344 9.216-37.2736 18.0224-76.8 31.3344-117.1456 39.7312-34.4064 6.9632-69.632 10.6496-104.8576 10.6496z m-207.0528-66.1504c34.2016 15.9744 70.0416 27.8528 106.7008 35.4304 65.7408 13.7216 135.168 13.7216 200.9088 0 36.6592-7.5776 72.704-19.456 106.7008-35.4304v-161.3824c0-62.6688-50.9952-113.8688-113.8688-113.8688h-9.6256c-28.672 0-52.224-23.3472-52.224-52.224V606.208c0-14.5408 9.8304-27.0336 23.9616-30.3104 51.2-11.8784 86.8352-56.9344 86.8352-109.568v-131.8912c0-62.0544-50.3808-112.4352-112.4352-112.4352h-60.0064c-62.0544 0-112.4352 50.3808-112.4352 112.4352v131.8912c0 52.8384 36.0448 97.8944 87.4496 109.568 14.1312 3.2768 24.1664 15.7696 24.1664 30.5152v24.1664c0 28.672-23.3472 52.224-52.224 52.224h-10.24c-62.6688 0-113.8688 50.9952-113.8688 113.8688v161.1776z m424.3456 6.5536z" fill="#1C1D21" p-id="13683"></path><path d="M605.3888 672.3584h-9.6256c-20.2752 0-37.0688-14.336-40.96-33.3824l-0.4096 0.4096c-23.1424 23.7568-61.44 23.7568-84.3776-0.4096-3.8912 19.0464-20.8896 33.3824-40.96 33.3824h-10.24c-68.608 0-124.1088 55.5008-124.1088 124.1088v167.936c36.0448 17.408 74.5472 30.5152 114.8928 38.912 33.1776 6.9632 67.3792 10.4448 102.6048 10.4448s69.4272-3.6864 102.6048-10.4448c40.3456-8.3968 78.848-21.504 114.8928-38.912v-167.936c-0.4096-68.4032-55.9104-124.1088-124.3136-124.1088z" fill="#C67552" p-id="13684"></path><path d="M512 1024c-35.2256 0-70.4512-3.6864-104.6528-10.6496-40.5504-8.3968-79.872-21.7088-117.1456-39.7312-3.4816-1.6384-5.7344-5.3248-5.7344-9.216v-167.936c0-74.1376 60.2112-134.3488 134.3488-134.3488h10.24c14.9504 0 28.0576-10.6496 30.9248-25.1904 0.8192-3.6864 3.4816-6.7584 7.168-7.7824s7.5776 0 10.24 2.8672c9.216 9.6256 21.504 14.9504 34.6112 14.9504h0.2048c13.1072 0 25.3952-5.12 34.6112-14.7456l0.4096-0.4096c2.6624-2.6624 6.5536-3.6864 10.24-2.6624 3.6864 1.024 6.3488 4.096 7.168 7.7824 3.072 14.5408 15.9744 25.1904 30.9248 25.1904h9.6256c74.1376 0 134.3488 60.2112 134.3488 134.3488v167.936c0 3.8912-2.2528 7.5776-5.7344 9.216-37.2736 18.0224-76.8 31.3344-117.1456 39.7312-34.2016 6.9632-69.4272 10.6496-104.6528 10.6496z m-207.0528-66.1504c34.2016 15.9744 70.0416 27.8528 106.7008 35.4304 65.7408 13.7216 135.168 13.7216 200.9088 0 36.6592-7.5776 72.704-19.456 106.7008-35.4304v-161.3824c0-62.6688-50.9952-113.8688-113.8688-113.8688h-9.6256c-19.2512 0-36.4544-10.6496-45.4656-26.624-11.0592 7.3728-24.1664 11.264-37.888 11.264h-0.2048c-13.5168 0-26.624-4.096-37.6832-11.264-9.0112 15.9744-26.2144 26.624-45.4656 26.624h-10.24c-62.6688 0-113.8688 50.9952-113.8688 113.8688v161.3824z m424.3456 6.5536z" fill="#1C1D21" p-id="13685"></path><path d="M339.3536 948.0192c-5.7344 0-10.24-4.5056-10.24-10.24v-141.312c0-5.7344 4.5056-10.24 10.24-10.24s10.24 4.5056 10.24 10.24v141.312c0 5.7344-4.7104 10.24-10.24 10.24z" fill="#FFA364" p-id="13686"></path><path d="M220.16 608.256c-5.7344 0-10.24-4.5056-10.24-10.24v-73.5232c0-5.7344 4.5056-10.24 10.24-10.24s10.24 4.5056 10.24 10.24V598.016c0 5.7344-4.5056 10.24-10.24 10.24z" fill="#FFECE9" p-id="13687"></path><path d="M295.7312 432.128H189.44c-12.6976 0-23.1424-10.24-23.1424-23.1424 0-12.6976 10.24-23.1424 23.1424-23.1424h106.2912c12.6976 0 23.1424 10.24 23.1424 23.1424 0 12.6976-10.24 23.1424-23.1424 23.1424z" fill="#FFC5B3" p-id="13688"></path><path d="M295.7312 478.208H189.44c-12.6976 0-23.1424-10.24-23.1424-23.1424 0-12.6976 10.24-23.1424 23.1424-23.1424h106.2912c12.6976 0 23.1424 10.24 23.1424 23.1424 0 12.9024-10.24 23.1424-23.1424 23.1424zM295.7312 524.4928H189.44c-12.6976 0-23.1424-10.24-23.1424-23.1424 0-12.6976 10.24-23.1424 23.1424-23.1424h106.2912c12.6976 0 23.1424 10.24 23.1424 23.1424 0 12.6976-10.24 23.1424-23.1424 23.1424z" fill="#FFC5B3" p-id="13689"></path><path d="M295.7312 442.368H189.44c-18.432 0-33.3824-14.9504-33.3824-33.3824s14.9504-33.3824 33.3824-33.3824h106.2912c18.432 0 33.3824 14.9504 33.3824 33.3824s-14.9504 33.3824-33.3824 33.3824z m-106.2912-46.2848c-7.168 0-12.9024 5.7344-12.9024 12.9024s5.7344 12.9024 12.9024 12.9024h106.2912c7.168 0 12.9024-5.7344 12.9024-12.9024s-5.7344-12.9024-12.9024-12.9024H189.44z" fill="#1C1D21" p-id="13690"></path><path d="M295.7312 488.448H189.44c-18.432 0-33.3824-14.9504-33.3824-33.3824s14.9504-33.3824 33.3824-33.3824h106.2912c18.432 0 33.3824 14.9504 33.3824 33.3824s-14.9504 33.3824-33.3824 33.3824zM189.44 442.368c-7.168 0-12.9024 5.7344-12.9024 12.9024s5.7344 12.9024 12.9024 12.9024h106.2912c7.168 0 12.9024-5.7344 12.9024-12.9024s-5.7344-12.9024-12.9024-12.9024H189.44z" fill="#1C1D21" p-id="13691"></path><path d="M624.0256 1001.2672c13.9264-3.072 27.4432-6.9632 40.96-11.264V33.9968c-13.5168-4.3008-27.0336-7.9872-40.96-11.264v978.5344zM915.2512 810.3936c15.1552-20.48 28.8768-42.3936 40.96-65.1264V278.7328c-12.0832-22.7328-25.8048-44.6464-40.96-65.1264v596.7872zM400.384 22.7328c-13.9264 3.072-27.4432 6.9632-40.96 11.264v956.2112c13.5168 4.3008 27.0336 7.9872 40.96 11.264V22.7328zM67.7888 745.2672c12.0832 22.7328 25.8048 44.6464 40.96 65.1264V213.6064c-15.1552 20.48-28.8768 42.3936-40.96 65.1264v466.5344z" fill="#E0E0E0" p-id="13692"></path><path d="M295.7312 534.7328H189.44c-18.432 0-33.3824-14.9504-33.3824-33.3824s14.9504-33.3824 33.3824-33.3824h106.2912c18.432 0 33.3824 14.9504 33.3824 33.3824s-14.9504 33.3824-33.3824 33.3824z m-106.2912-46.2848c-7.168 0-12.9024 5.7344-12.9024 12.9024s5.7344 12.9024 12.9024 12.9024h106.2912c7.168 0 12.9024-5.7344 12.9024-12.9024s-5.7344-12.9024-12.9024-12.9024H189.44zM296.1408 659.2512H169.984c-10.6496 0-19.456-8.6016-19.456-19.456v-32.5632c0-10.6496 8.6016-19.456 19.456-19.456h126.1568c10.6496 0 19.456 8.6016 19.456 19.456v32.5632c0 10.6496-8.6016 19.456-19.456 19.456z m-124.928-20.48h123.904V608.256H171.2128v30.5152z m124.928-30.5152z" fill="#1C1D21" p-id="13693"></path><path d="M686.4896 347.3408l49.5616 3.8912c18.2272 1.4336 32.1536 16.5888 32.1536 34.6112h-81.7152v-38.5024z" fill="#FFC5B3" p-id="13694"></path><path d="M686.4896 396.0832c-2.6624 0-5.3248-1.024-7.168-3.072-1.8432-1.8432-3.072-4.5056-3.072-7.168v-38.5024c0-2.8672 1.2288-5.5296 3.2768-7.5776 2.048-1.8432 4.9152-2.8672 7.7824-2.6624l49.5616 3.8912c23.3472 1.8432 41.5744 21.504 41.5744 44.8512 0 5.7344-4.5056 10.24-10.24 10.24h-81.7152z m10.24-37.6832v17.2032H755.712c-3.6864-7.7824-11.264-13.5168-20.48-14.336l-38.5024-2.8672z" fill="#1C1D21" p-id="13695"></path><path d="M739.7376 432.128h102.1952v165.888h-102.1952z" fill="#FFC5B3" p-id="13696"></path><path d="M841.9328 608.256h-102.1952c-5.7344 0-10.24-4.5056-10.24-10.24v-165.888c0-5.7344 4.5056-10.24 10.24-10.24h102.1952c5.7344 0 10.24 4.5056 10.24 10.24v165.888c0 5.7344-4.5056 10.24-10.24 10.24z m-91.9552-20.48h81.7152v-145.408h-81.7152v145.408z" fill="#1C1D21" p-id="13697"></path><path d="M728.2688 432.128h106.2912c12.6976 0 23.1424-10.24 23.1424-23.1424 0-12.6976-10.24-23.1424-23.1424-23.1424h-106.2912c-12.6976 0-23.1424 10.24-23.1424 23.1424 0 12.6976 10.24 23.1424 23.1424 23.1424z" fill="#FFC5B3" p-id="13698"></path><path d="M728.2688 478.208h106.2912c12.6976 0 23.1424-10.24 23.1424-23.1424 0-12.6976-10.24-23.1424-23.1424-23.1424h-106.2912c-12.6976 0-23.1424 10.24-23.1424 23.1424 0 12.9024 10.24 23.1424 23.1424 23.1424zM728.2688 524.4928h106.2912c12.6976 0 23.1424-10.24 23.1424-23.1424 0-12.6976-10.24-23.1424-23.1424-23.1424h-106.2912c-12.6976 0-23.1424 10.24-23.1424 23.1424 0 12.6976 10.24 23.1424 23.1424 23.1424z" fill="#FFC5B3" p-id="13699"></path><path d="M834.56 442.368h-106.2912c-18.432 0-33.3824-14.9504-33.3824-33.3824s14.9504-33.3824 33.3824-33.3824h106.2912c18.432 0 33.3824 14.9504 33.3824 33.3824-0.2048 18.432-15.1552 33.3824-33.3824 33.3824z m-106.2912-46.2848c-7.168 0-12.9024 5.7344-12.9024 12.9024s5.7344 12.9024 12.9024 12.9024h106.2912c7.168 0 12.9024-5.7344 12.9024-12.9024s-5.7344-12.9024-12.9024-12.9024h-106.2912z" fill="#1C1D21" p-id="13700"></path><path d="M834.56 488.448h-106.2912c-18.432 0-33.3824-14.9504-33.3824-33.3824s14.9504-33.3824 33.3824-33.3824h106.2912c18.432 0 33.3824 14.9504 33.3824 33.3824-0.2048 18.432-15.1552 33.3824-33.3824 33.3824zM728.2688 442.368c-7.168 0-12.9024 5.7344-12.9024 12.9024s5.7344 12.9024 12.9024 12.9024h106.2912c7.168 0 12.9024-5.7344 12.9024-12.9024s-5.7344-12.9024-12.9024-12.9024h-106.2912z" fill="#1C1D21" p-id="13701"></path><path d="M685.2608 456.4992c11.264 0 20.48-9.216 20.48-20.48v-67.9936c0-11.264-9.216-20.48-20.48-20.48s-20.48 9.216-20.48 20.48v67.9936c0 11.264 9.216 20.48 20.48 20.48z" fill="#FFC5B3" p-id="13702"></path><path d="M685.2608 466.7392c-16.9984 0-30.72-13.7216-30.72-30.72v-67.9936c0-16.9984 13.7216-30.72 30.72-30.72s30.72 13.7216 30.72 30.72v67.9936c0 16.7936-13.7216 30.72-30.72 30.72z m0-109.1584c-5.7344 0-10.24 4.7104-10.24 10.24v67.9936c0 5.7344 4.7104 10.24 10.24 10.24 5.7344 0 10.24-4.7104 10.24-10.24v-67.9936c0-5.5296-4.5056-10.24-10.24-10.24z" fill="#1C1D21" p-id="13703"></path><path d="M729.2928 854.016V633.4464h121.6512V854.016c0 33.5872-27.2384 60.8256-60.8256 60.8256-33.5872-0.2048-60.8256-27.2384-60.8256-60.8256z" fill="#C67552" p-id="13704"></path><path d="M790.1184 924.8768c-39.1168 0-71.0656-31.9488-71.0656-71.0656V633.4464c0-5.7344 4.5056-10.24 10.24-10.24h121.6512c5.7344 0 10.24 4.5056 10.24 10.24V854.016c0 39.1168-31.9488 70.8608-71.0656 70.8608z m-50.5856-281.1904V854.016c0 27.8528 22.7328 50.5856 50.5856 50.5856s50.5856-22.7328 50.5856-50.5856V643.6864h-101.1712z" fill="#1C1D21" p-id="13705"></path><path d="M854.016 598.016h-126.1568c-5.12 0-9.216 4.096-9.216 9.216v32.5632c0 5.12 4.096 9.216 9.216 9.216H854.016c5.12 0 9.216-4.096 9.216-9.216v-32.5632c-0.2048-5.12-4.3008-9.216-9.216-9.216z" fill="#C67552" p-id="13706"></path><path d="M790.1184 883.9168c-16.5888 0-30.1056-13.5168-30.1056-30.1056V598.016c0-5.7344 4.5056-10.24 10.24-10.24s10.24 4.5056 10.24 10.24v256c0 5.3248 4.3008 9.6256 9.6256 9.6256 5.7344 0 10.24 4.5056 10.24 10.24s-4.5056 10.0352-10.24 10.0352z" fill="#FFA364" p-id="13707"></path><path d="M776.3968 608.256c-5.7344 0-10.24-4.5056-10.24-10.24v-73.5232c0-5.7344 4.5056-10.24 10.24-10.24s10.24 4.5056 10.24 10.24V598.016c0 5.7344-4.5056 10.24-10.24 10.24z" fill="#FFECE9" p-id="13708"></path><path d="M834.56 534.7328h-106.2912c-18.432 0-33.3824-14.9504-33.3824-33.3824s14.9504-33.3824 33.3824-33.3824h106.2912c18.432 0 33.3824 14.9504 33.3824 33.3824-0.2048 18.432-15.1552 33.3824-33.3824 33.3824z m-106.2912-46.2848c-7.168 0-12.9024 5.7344-12.9024 12.9024s5.7344 12.9024 12.9024 12.9024h106.2912c7.168 0 12.9024-5.7344 12.9024-12.9024s-5.7344-12.9024-12.9024-12.9024h-106.2912zM854.016 659.2512h-126.1568c-10.6496 0-19.456-8.6016-19.456-19.456v-32.5632c0-10.6496 8.6016-19.456 19.456-19.456H854.016c10.6496 0 19.456 8.6016 19.456 19.456v32.5632c-0.2048 10.6496-8.8064 19.456-19.456 19.456z m-125.1328-20.48h123.904V608.256h-123.904v30.5152zM854.016 608.256zM915.2512 820.6336c-1.024 0-2.2528-0.2048-3.2768-0.6144-4.096-1.4336-6.9632-5.3248-6.9632-9.6256V213.6064c0-4.5056 2.8672-8.3968 6.9632-9.6256 4.096-1.4336 8.8064 0 11.4688 3.6864 15.5648 20.8896 29.696 43.4176 41.7792 66.56 0.8192 1.4336 1.2288 3.072 1.2288 4.7104V745.472c0 1.6384-0.4096 3.2768-1.2288 4.7104-12.288 23.1424-26.2144 45.4656-41.7792 66.56-1.8432 2.4576-4.9152 3.8912-8.192 3.8912z m10.24-574.2592v531.2512c7.3728-11.264 14.1312-22.9376 20.48-34.816V281.1904c-6.144-11.8784-13.1072-23.552-20.48-34.816zM400.384 327.8848c-5.7344 0-10.24-4.5056-10.24-10.24v-9.216c0-5.7344 4.5056-10.24 10.24-10.24s10.24 4.5056 10.24 10.24v9.216c0 5.7344-4.5056 10.24-10.24 10.24zM400.384 407.9616c-5.7344 0-10.24-4.5056-10.24-10.24v-38.0928c0-5.7344 4.5056-10.24 10.24-10.24s10.24 4.5056 10.24 10.24v38.0928c0 5.7344-4.5056 10.24-10.24 10.24z" fill="#1C1D21" p-id="13709"></path><path d="M400.384 1011.5072c-0.8192 0-1.4336 0-2.2528-0.2048-13.9264-3.072-28.0576-6.9632-41.7792-11.4688-4.3008-1.4336-7.168-5.3248-7.168-9.8304V33.792c0-4.5056 2.8672-8.3968 7.168-9.8304 13.7216-4.3008 27.8528-8.192 41.7792-11.4688 3.072-0.6144 6.144 0 8.6016 2.048 2.4576 1.8432 3.8912 4.9152 3.8912 7.9872v253.952c0 5.7344-4.5056 10.24-10.24 10.24s-10.24-4.5056-10.24-10.24V35.6352c-6.7584 1.8432-13.7216 3.6864-20.48 5.7344v941.056c6.7584 2.048 13.7216 3.8912 20.48 5.7344V437.4528c0-5.7344 4.5056-10.24 10.24-10.24s10.24 4.5056 10.24 10.24v563.8144c0 3.072-1.4336 6.144-3.8912 7.9872-1.8432 1.4336-4.096 2.2528-6.3488 2.2528zM624.0256 327.8848c-5.7344 0-10.24-4.5056-10.24-10.24v-9.216c0-5.7344 4.5056-10.24 10.24-10.24s10.24 4.5056 10.24 10.24v9.216c0 5.7344-4.5056 10.24-10.24 10.24zM624.0256 407.9616c-5.7344 0-10.24-4.5056-10.24-10.24v-38.0928c0-5.7344 4.5056-10.24 10.24-10.24s10.24 4.5056 10.24 10.24v38.0928c0 5.7344-4.5056 10.24-10.24 10.24z" fill="#1C1D21" p-id="13710"></path><path d="M624.0256 1011.5072c-2.2528 0-4.5056-0.8192-6.3488-2.2528-2.4576-1.8432-3.8912-4.9152-3.8912-7.9872V437.4528c0-5.7344 4.5056-10.24 10.24-10.24s10.24 4.5056 10.24 10.24v550.7072c6.7584-1.8432 13.7216-3.6864 20.48-5.7344V41.3696c-6.7584-2.048-13.7216-3.8912-20.48-5.7344v241.0496c0 5.7344-4.5056 10.24-10.24 10.24s-10.24-4.5056-10.24-10.24v-253.952c0-3.072 1.4336-6.144 3.8912-7.9872 2.4576-1.8432 5.5296-2.6624 8.6016-2.048 13.9264 3.072 28.0576 6.9632 41.7792 11.4688 4.3008 1.4336 7.168 5.3248 7.168 9.8304v956.2112c0 4.5056-2.8672 8.3968-7.168 9.8304-13.7216 4.3008-27.8528 8.192-41.7792 11.4688h-2.2528zM108.7488 820.6336c-3.2768 0-6.3488-1.4336-8.192-4.096-15.5648-20.8896-29.696-43.4176-41.7792-66.56-0.8192-1.4336-1.2288-3.072-1.2288-4.7104V278.7328c0-1.6384 0.4096-3.2768 1.2288-4.7104 12.288-23.1424 26.2144-45.4656 41.7792-66.56 2.6624-3.4816 7.168-4.9152 11.4688-3.6864 4.096 1.4336 6.9632 5.3248 6.9632 9.6256v596.992c0 4.5056-2.8672 8.3968-6.9632 9.6256-1.2288 0.6144-2.2528 0.6144-3.2768 0.6144z m-30.72-77.824c6.3488 11.8784 13.1072 23.552 20.48 34.816V246.3744c-7.3728 11.264-14.1312 22.9376-20.48 34.816v461.6192zM547.4304 567.9104c-3.4816 0-6.9632-1.8432-8.8064-5.12-5.5296-9.4208-15.7696-15.36-26.624-15.36s-21.0944 5.9392-26.624 15.36c-2.8672 4.9152-9.0112 6.5536-13.9264 3.6864-4.9152-2.8672-6.5536-9.0112-3.6864-13.9264 9.216-15.7696 26.2144-25.6 44.4416-25.6s35.2256 9.8304 44.4416 25.6c2.8672 4.9152 1.2288 11.0592-3.6864 13.9264-1.8432 0.8192-3.6864 1.4336-5.5296 1.4336z" fill="#1C1D21" p-id="13711"></path></svg>
